<svg width="174" height="31" viewBox="0 0 174 31" fill="none" xmlns="http://www.w3.org/2000/svg">
<path fill-rule="evenodd" clip-rule="evenodd" d="M1.89529 10.8936C2.60602 10.8936 3.18218 11.4697 3.18218 12.1804V19.3062C3.18218 20.0169 2.60602 20.5931 1.89529 20.5931V20.5931C1.18456 20.5931 0.608398 20.0169 0.608398 19.3062V12.1804C0.608398 11.4697 1.18456 10.8936 1.89529 10.8936V10.8936Z" fill="#FF57F8"/>
<path fill-rule="evenodd" clip-rule="evenodd" d="M23.532 10.8936C24.2427 10.8936 24.8189 11.4697 24.8189 12.1804V19.3062C24.8189 20.0169 24.2427 20.5931 23.532 20.5931V20.5931C22.8213 20.5931 22.2451 20.0169 22.2451 19.3062V12.1804C22.2451 11.4697 22.8213 10.8936 23.532 10.8936V10.8936Z" fill="#FF57F8"/>
<path fill-rule="evenodd" clip-rule="evenodd" d="M7.24392 5.00781C7.95465 5.00781 8.53082 5.58397 8.53082 6.2947V24.1149C8.53082 24.8256 7.95465 25.4018 7.24392 25.4018V25.4018C6.53319 25.4018 5.95703 24.8256 5.95703 24.1149V6.2947C5.95703 5.58397 6.53319 5.00781 7.24392 5.00781V5.00781Z" fill="#FF57F8"/>
<path fill-rule="evenodd" clip-rule="evenodd" d="M18.1844 5.00781C18.8951 5.00781 19.4712 5.58397 19.4712 6.2947V24.1149C19.4712 24.8256 18.8951 25.4018 18.1844 25.4018V25.4018C17.4736 25.4018 16.8975 24.8256 16.8975 24.1149V6.2947C16.8975 5.58397 17.4736 5.00781 18.1844 5.00781V5.00781Z" fill="#FF57F8"/>
<path fill-rule="evenodd" clip-rule="evenodd" d="M12.8357 0.779151C13.5464 0.785543 14.1176 1.36687 14.1116 2.07757L13.8896 28.1883C13.8836 28.899 13.3026 29.47 12.5919 29.4636V29.4636C11.8812 29.4572 11.3099 28.8759 11.316 28.1651L11.5379 2.05443C11.5439 1.34372 12.125 0.77276 12.8357 0.779151V0.779151Z" fill="#FF57F8"/>
<path d="M48.1431 21.6792C49.0301 21.6792 49.7503 21.5815 50.3037 21.3862C51.3535 21.0119 51.8784 20.3161 51.8784 19.2988C51.8784 18.7048 51.618 18.245 51.0972 17.9194C50.5763 17.6021 49.7585 17.3213 48.6436 17.0771L46.7393 16.6499C44.8675 16.2267 43.5736 15.7669 42.8574 15.2705C41.6449 14.4404 41.0386 13.1424 41.0386 11.3765C41.0386 9.76514 41.6245 8.42643 42.7964 7.36035C43.9683 6.29427 45.6895 5.76123 47.96 5.76123C49.8561 5.76123 51.4715 6.26579 52.8062 7.2749C54.1489 8.27588 54.8529 9.73258 54.918 11.645H51.3047C51.2396 10.5627 50.7676 9.79362 49.8887 9.33789C49.3027 9.03678 48.5744 8.88623 47.7036 8.88623C46.7352 8.88623 45.9621 9.08154 45.3843 9.47217C44.8065 9.86279 44.5176 10.408 44.5176 11.1079C44.5176 11.7508 44.8024 12.231 45.3721 12.5483C45.7383 12.7599 46.5195 13.0081 47.7158 13.293L50.8164 14.0376C52.1755 14.3631 53.2008 14.7985 53.8926 15.3438C54.9668 16.1901 55.5039 17.4149 55.5039 19.0181C55.5039 20.6619 54.8732 22.0291 53.6118 23.1196C52.3586 24.202 50.5845 24.7432 48.2896 24.7432C45.9458 24.7432 44.1025 24.2101 42.7598 23.144C41.417 22.0698 40.7456 20.5968 40.7456 18.7251H44.3345C44.4484 19.547 44.6722 20.1615 45.0059 20.5684C45.6162 21.3089 46.6619 21.6792 48.1431 21.6792ZM69.6025 12.6582C70.7256 14.0661 71.2871 15.7303 71.2871 17.6509C71.2871 19.604 70.7256 21.2764 69.6025 22.668C68.4795 24.0514 66.7746 24.7432 64.4878 24.7432C62.201 24.7432 60.4961 24.0514 59.373 22.668C58.25 21.2764 57.6885 19.604 57.6885 17.6509C57.6885 15.7303 58.25 14.0661 59.373 12.6582C60.4961 11.2503 62.201 10.5464 64.4878 10.5464C66.7746 10.5464 68.4795 11.2503 69.6025 12.6582ZM64.4756 13.4883C63.4583 13.4883 62.673 13.8504 62.1196 14.5747C61.5744 15.2909 61.3018 16.3162 61.3018 17.6509C61.3018 18.9855 61.5744 20.015 62.1196 20.7393C62.673 21.4635 63.4583 21.8257 64.4756 21.8257C65.4928 21.8257 66.2741 21.4635 66.8193 20.7393C67.3646 20.015 67.6372 18.9855 67.6372 17.6509C67.6372 16.3162 67.3646 15.2909 66.8193 14.5747C66.2741 13.8504 65.4928 13.4883 64.4756 13.4883ZM82.8223 22.3994C82.7897 22.4401 82.7083 22.5622 82.5781 22.7656C82.4479 22.9691 82.2933 23.1481 82.1143 23.3027C81.569 23.791 81.04 24.1247 80.5273 24.3037C80.0228 24.4827 79.4287 24.5723 78.7451 24.5723C76.7757 24.5723 75.4492 23.8643 74.7656 22.4482C74.3831 21.667 74.1919 20.5155 74.1919 18.9937V10.9736H77.7563V18.9937C77.7563 19.7505 77.8459 20.3201 78.0249 20.7026C78.3423 21.3781 78.9648 21.7158 79.8926 21.7158C81.0807 21.7158 81.8945 21.2357 82.334 20.2754C82.5618 19.7546 82.6758 19.0669 82.6758 18.2124V10.9736H86.2036V24.2793H82.8223V22.3994ZM96.335 13.5493C95.1549 13.5493 94.3452 14.0498 93.9058 15.0508C93.6779 15.5798 93.564 16.2552 93.564 17.0771V24.2793H90.0972V10.998H93.4541V12.939C93.9017 12.2554 94.3249 11.763 94.7236 11.4619C95.4398 10.9248 96.3472 10.6562 97.4458 10.6562C98.8211 10.6562 99.9442 11.0184 100.815 11.7427C101.694 12.4588 102.133 13.651 102.133 15.3193V24.2793H98.5688V16.186C98.5688 15.4862 98.4753 14.9491 98.2881 14.5747C97.9463 13.8911 97.2952 13.5493 96.335 13.5493ZM117.965 6.31055V24.2793H114.584V22.436C114.088 23.2254 113.522 23.7992 112.887 24.1572C112.252 24.5153 111.463 24.6943 110.519 24.6943C108.965 24.6943 107.654 24.0677 106.588 22.8145C105.53 21.5531 105.001 19.9377 105.001 17.9683C105.001 15.6978 105.522 13.9115 106.564 12.6094C107.614 11.3073 109.014 10.6562 110.763 10.6562C111.569 10.6562 112.285 10.8353 112.912 11.1934C113.538 11.5433 114.047 12.0316 114.438 12.6582V6.31055H117.965ZM108.59 17.7119C108.59 18.9408 108.834 19.9214 109.323 20.6538C109.803 21.3944 110.535 21.7646 111.52 21.7646C112.505 21.7646 113.253 21.3984 113.766 20.666C114.279 19.9336 114.535 18.9855 114.535 17.8218C114.535 16.1942 114.124 15.0304 113.302 14.3306C112.798 13.9074 112.212 13.6958 111.544 13.6958C110.527 13.6958 109.778 14.0824 109.298 14.8555C108.826 15.6204 108.59 16.5726 108.59 17.7119ZM121.866 24.2793V6.2793H133.466V7.7293H123.566V14.2293H132.566V15.6793H123.566V24.2793H121.866ZM136.432 24.2793V6.2793H137.932V24.2793H136.432ZM147.399 24.6293C146.566 24.6126 145.783 24.4626 145.049 24.1793C144.333 23.896 143.699 23.471 143.149 22.9043C142.616 22.3376 142.191 21.6293 141.874 20.7793C141.558 19.9293 141.399 18.9376 141.399 17.8043C141.399 16.8543 141.524 15.971 141.774 15.1543C142.024 14.321 142.399 13.596 142.899 12.9793C143.399 12.3626 144.024 11.8793 144.774 11.5293C145.524 11.1626 146.399 10.9793 147.399 10.9793C148.416 10.9793 149.299 11.1626 150.049 11.5293C150.799 11.8793 151.424 12.3626 151.924 12.9793C152.424 13.5793 152.791 14.296 153.024 15.1293C153.274 15.9626 153.399 16.8543 153.399 17.8043C153.399 18.8376 153.258 19.771 152.974 20.6043C152.691 21.4376 152.283 22.1543 151.749 22.7543C151.233 23.3543 150.599 23.821 149.849 24.1543C149.116 24.471 148.299 24.6293 147.399 24.6293ZM151.799 17.8043C151.799 17.0376 151.716 16.321 151.549 15.6543C151.383 14.9876 151.124 14.4126 150.774 13.9293C150.424 13.4293 149.974 13.0376 149.424 12.7543C148.874 12.471 148.199 12.3293 147.399 12.3293C146.616 12.3293 145.941 12.4876 145.374 12.8043C144.824 13.1043 144.374 13.5126 144.024 14.0293C143.674 14.5293 143.416 15.1126 143.249 15.7793C143.083 16.4293 142.999 17.1043 142.999 17.8043C142.999 18.6043 143.091 19.346 143.274 20.0293C143.474 20.696 143.758 21.271 144.124 21.7543C144.491 22.2376 144.949 22.6126 145.499 22.8793C146.049 23.146 146.683 23.2793 147.399 23.2793C148.183 23.2793 148.849 23.1293 149.399 22.8293C149.966 22.5126 150.424 22.096 150.774 21.5793C151.124 21.0626 151.383 20.4793 151.549 19.8293C151.716 19.1793 151.799 18.5043 151.799 17.8043ZM167.591 22.2793L170.991 11.3293H172.516L168.316 24.2793H166.716L163.891 13.4043H163.841L160.966 24.2793H159.166L155.216 11.3293H156.716L160.066 22.3793L163.066 11.3293H164.741L167.591 22.2793Z" fill="#FF57F8"/>
</svg>
